<?xml version="1.0" encoding="UTF-8"?><svg id="Layer_1" xmlns="http://www.w3.org/2000/svg" viewBox="0 0 150 150"><defs><style>.cls-1{fill:#fff;stroke:#2b2b2b;stroke-miterlimit:10;}</style></defs><path class="cls-1" d="M15.92,32.28h5.64c5.52,0,10,4.48,10,10v45.72c0,2.76,2.24,5,5,5h19.52c2.76,0,5,2.24,5,5v7.28c0,2.76-2.24,5-5,5H20.92c-5.52,0-10-4.48-10-10v-63c0-2.76,2.24-5,5-5Z"/><path class="cls-1" d="M79.52,32.28h5.64c5.52,0,10,4.48,10,10v14.04c0,2.76,2.24,5,5,5h13.28c2.76,0,5-2.24,5-5v-19.04c0-2.76,2.24-5,5-5h5.64c5.52,0,10,4.48,10,10v63c0,2.76-2.24,5-5,5h-5.64c-5.52,0-10-4.48-10-10v-15.96c0-2.76-2.24-5-5-5h-13.28c-2.76,0-5,2.24-5,5v20.96c0,2.76-2.24,5-5,5h-5.64c-5.52,0-10-4.48-10-10v-63c0-2.76,2.24-5,5-5Z"/></svg>