<?xml version="1.0" encoding="UTF-8"?><svg id="Layer_1" xmlns="http://www.w3.org/2000/svg" viewBox="0 0 150 150"><defs><style>.cls-1{fill:#fff;stroke:#2b2b2b;stroke-miterlimit:10;}</style></defs><path class="cls-1" d="M8.16,30.88h6.38c6.25,0,11.31,5.07,11.31,11.31v51.73c0,3.12,2.53,5.66,5.66,5.66h22.08c3.12,0,5.66,2.53,5.66,5.66v8.24c0,3.12-2.53,5.66-5.66,5.66H13.81c-6.25,0-11.31-5.07-11.31-11.31V36.53c0-3.12,2.53-5.66,5.66-5.66Z"/><path class="cls-1" d="M80.12,30.88h6.38c6.25,0,11.31,5.07,11.31,11.31v15.88c0,3.12,2.53,5.66,5.66,5.66h15.02c3.12,0,5.66-2.53,5.66-5.66v-21.54c0-3.12,2.53-5.66,5.66-5.66h6.38c6.25,0,11.31,5.07,11.31,11.31v71.28c0,3.12-2.53,5.66-5.66,5.66h-6.38c-6.25,0-11.31-5.07-11.31-11.31v-18.06c0-3.12-2.53-5.66-5.66-5.66h-15.02c-3.12,0-5.66,2.53-5.66,5.66v23.71c0,3.12-2.53,5.66-5.66,5.66h-6.38c-6.25,0-11.31-5.07-11.31-11.31V36.53c0-3.12,2.53-5.66,5.66-5.66Z"/></svg>